G04 DipTrace 3.1.0.1*
G04 BottomSilk.gbr*
%MOIN*%
G04 #@! TF.FileFunction,Legend,Bot*
G04 #@! TF.Part,Single*
%ADD40C,0.006176*%
%FSLAX26Y26*%
G04*
G70*
G90*
G75*
G01*
G04 BotSilk*
%LPD*%
X1197704Y1324593D2*
D40*
Y1326494D1*
X1195803Y1330341D1*
X1193901Y1332242D1*
X1190055Y1334144D1*
X1182405D1*
X1178603Y1332242D1*
X1176701Y1330341D1*
X1174756Y1326494D1*
Y1322692D1*
X1176701Y1318845D1*
X1180504Y1313141D1*
X1199649Y1293996D1*
X1172855D1*
X1156656Y1334144D2*
X1135654D1*
X1147106Y1318845D1*
X1141358D1*
X1137555Y1316944D1*
X1135654Y1315043D1*
X1133709Y1309294D1*
Y1305492D1*
X1135654Y1299744D1*
X1139457Y1295897D1*
X1145205Y1293996D1*
X1150953D1*
X1156656Y1295897D1*
X1158558Y1297843D1*
X1160503Y1301645D1*
X1121357Y1326494D2*
X1117510Y1328440D1*
X1111762Y1334144D1*
Y1293996D1*
X1099411Y1326494D2*
X1095564Y1328440D1*
X1089816Y1334144D1*
Y1293996D1*
X1038584Y1334188D2*
Y1293996D1*
X1021340D1*
X1015592Y1295941D1*
X1013691Y1297843D1*
X1011789Y1301645D1*
Y1307393D1*
X1013691Y1311240D1*
X1015592Y1313141D1*
X1021340Y1315043D1*
X1015592Y1316988D1*
X1013691Y1318889D1*
X1011789Y1322692D1*
Y1326539D1*
X1013691Y1330341D1*
X1015592Y1332287D1*
X1021340Y1334188D1*
X1038584D1*
Y1315043D2*
X1021340D1*
X999438Y1320791D2*
Y1293996D1*
Y1309294D2*
X997492Y1315043D1*
X993690Y1318889D1*
X989843Y1320791D1*
X984095D1*
X971744Y1309294D2*
X948796D1*
Y1313141D1*
X950697Y1316988D1*
X952598Y1318889D1*
X956445Y1320791D1*
X962193D1*
X965996Y1318889D1*
X969842Y1315043D1*
X971744Y1309294D1*
Y1305492D1*
X969842Y1299744D1*
X965996Y1295941D1*
X962193Y1293996D1*
X956445D1*
X952598Y1295941D1*
X948796Y1299744D1*
X913497Y1320791D2*
Y1293996D1*
Y1315043D2*
X917299Y1318889D1*
X921146Y1320791D1*
X926850D1*
X930696Y1318889D1*
X934499Y1315043D1*
X936444Y1309294D1*
Y1305492D1*
X934499Y1299744D1*
X930696Y1295941D1*
X926850Y1293996D1*
X921146D1*
X917299Y1295941D1*
X913497Y1299744D1*
X901145Y1334188D2*
Y1293996D1*
X882000Y1320791D2*
X901145Y1301645D1*
X893496Y1309294D2*
X880098Y1293996D1*
X858196Y1320791D2*
X861999Y1318889D1*
X865846Y1315043D1*
X867747Y1309294D1*
Y1305492D1*
X865846Y1299744D1*
X861999Y1295941D1*
X858196Y1293996D1*
X852448D1*
X848602Y1295941D1*
X844799Y1299744D1*
X842854Y1305492D1*
Y1309294D1*
X844799Y1315043D1*
X848602Y1318889D1*
X852448Y1320791D1*
X858196D1*
X830502D2*
Y1301645D1*
X828601Y1295941D1*
X824754Y1293996D1*
X819006D1*
X815204Y1295941D1*
X809456Y1301645D1*
Y1320791D2*
Y1293996D1*
X791356Y1334188D2*
Y1301645D1*
X789455Y1295941D1*
X785608Y1293996D1*
X781806D1*
X797104Y1320791D2*
X783707D1*
X730573Y1334188D2*
Y1293996D1*
X713329D1*
X707581Y1295941D1*
X705680Y1297843D1*
X703779Y1301645D1*
Y1307393D1*
X705680Y1311240D1*
X707581Y1313141D1*
X713329Y1315043D1*
X707581Y1316988D1*
X705680Y1318889D1*
X703779Y1322692D1*
Y1326539D1*
X705680Y1330341D1*
X707581Y1332287D1*
X713329Y1334188D1*
X730573D1*
Y1315043D2*
X713329D1*
X681877Y1320791D2*
X685679Y1318889D1*
X689526Y1315043D1*
X691427Y1309294D1*
Y1305492D1*
X689526Y1299744D1*
X685679Y1295941D1*
X681877Y1293996D1*
X676129D1*
X672282Y1295941D1*
X668479Y1299744D1*
X666534Y1305492D1*
Y1309294D1*
X668479Y1315043D1*
X672282Y1318889D1*
X676129Y1320791D1*
X681877D1*
X631235D2*
Y1293996D1*
Y1315043D2*
X635037Y1318889D1*
X638884Y1320791D1*
X644588D1*
X648435Y1318889D1*
X652237Y1315043D1*
X654183Y1309294D1*
Y1305492D1*
X652237Y1299744D1*
X648435Y1295941D1*
X644588Y1293996D1*
X638884D1*
X635037Y1295941D1*
X631235Y1299744D1*
X618883Y1320791D2*
Y1293996D1*
Y1309294D2*
X616938Y1315043D1*
X613135Y1318889D1*
X609289Y1320791D1*
X603540D1*
X568241Y1334188D2*
Y1293996D1*
Y1315043D2*
X572044Y1318889D1*
X575890Y1320791D1*
X581638D1*
X585441Y1318889D1*
X589288Y1315043D1*
X591189Y1309294D1*
Y1305492D1*
X589288Y1299744D1*
X585441Y1295941D1*
X581638Y1293996D1*
X575890D1*
X572044Y1295941D1*
X568241Y1299744D1*
X1136425Y1271694D2*
Y1231502D1*
X1119181D1*
X1113433Y1233448D1*
X1111531Y1235349D1*
X1109630Y1239152D1*
Y1244900D1*
X1111531Y1248747D1*
X1113433Y1250648D1*
X1119181Y1252549D1*
X1113433Y1254495D1*
X1111531Y1256396D1*
X1109630Y1260198D1*
Y1264045D1*
X1111531Y1267848D1*
X1113433Y1269793D1*
X1119181Y1271694D1*
X1136425D1*
Y1252549D2*
X1119181D1*
X1097279Y1246801D2*
X1074331D1*
Y1250648D1*
X1076232Y1254495D1*
X1078133Y1256396D1*
X1081980Y1258297D1*
X1087728D1*
X1091531Y1256396D1*
X1095377Y1252549D1*
X1097279Y1246801D1*
Y1242998D1*
X1095377Y1237250D1*
X1091531Y1233448D1*
X1087728Y1231502D1*
X1081980D1*
X1078133Y1233448D1*
X1074331Y1237250D1*
X1061979Y1258297D2*
Y1231502D1*
Y1250648D2*
X1056231Y1256396D1*
X1052384Y1258297D1*
X1046681D1*
X1042834Y1256396D1*
X1040933Y1250648D1*
Y1231502D1*
X970555Y1271694D2*
Y1241097D1*
X972456Y1235349D1*
X974402Y1233448D1*
X978204Y1231502D1*
X982051D1*
X985854Y1233448D1*
X987755Y1235349D1*
X989700Y1241097D1*
Y1244900D1*
X958204Y1258297D2*
Y1239152D1*
X956302Y1233448D1*
X952456Y1231502D1*
X946708D1*
X942905Y1233448D1*
X937157Y1239152D1*
Y1258297D2*
Y1231502D1*
X924806Y1271694D2*
Y1231502D1*
X905660Y1258297D2*
X924806Y1239152D1*
X917156Y1246801D2*
X903759Y1231502D1*
X891408Y1258297D2*
Y1239152D1*
X889506Y1233448D1*
X885660Y1231502D1*
X879912D1*
X876109Y1233448D1*
X870361Y1239152D1*
Y1258297D2*
Y1231502D1*
X836963Y1252549D2*
X838864Y1256396D1*
X844612Y1258297D1*
X850360D1*
X856108Y1256396D1*
X858010Y1252549D1*
X856108Y1248747D1*
X852262Y1246801D1*
X842711Y1244900D1*
X838864Y1242998D1*
X836963Y1239152D1*
Y1237250D1*
X838864Y1233448D1*
X844612Y1231502D1*
X850360D1*
X856108Y1233448D1*
X858010Y1237250D1*
M02*
