G04 DipTrace 3.1.0.1*
G04 Top.gbr*
%MOIN*%
G04 #@! TF.FileFunction,Copper,L1,Top*
G04 #@! TF.Part,Single*
G04 #@! TA.AperFunction,Conductor*
%ADD14C,0.012992*%
%ADD15R,0.059055X0.051181*%
%ADD16R,0.051181X0.059055*%
G04 #@! TA.AperFunction,ComponentPad*
%ADD17R,0.066929X0.066929*%
%ADD18C,0.066929*%
%ADD19R,0.035433X0.027559*%
%ADD20R,0.070866X0.015748*%
G04 #@! TA.AperFunction,ViaPad*
%ADD21C,0.04*%
%FSLAX26Y26*%
G04*
G70*
G90*
G75*
G01*
G04 Top*
%LPD*%
X729823Y1105614D2*
D14*
X784744D1*
Y974339D1*
X714740Y904335D1*
Y769197D1*
X794000D2*
Y724118D1*
X944000D1*
Y573138D1*
X968803Y548335D1*
Y494000D1*
X944000Y724118D2*
Y769197D1*
X714740D2*
X794000D1*
X958169Y1233567D2*
X1183556D1*
X1193990Y1244000D1*
X958169Y1182386D2*
X1055604D1*
X1193990Y1044000D1*
X729823Y1156795D2*
X663045D1*
X587749Y1081500D1*
Y1025249D1*
X494000Y931500D1*
X754228Y640772D2*
X844000D1*
Y594000D1*
X729823Y1207976D2*
X570476D1*
X494000Y1131500D1*
X729823Y1233567D2*
X496067D1*
X494000Y1231500D1*
X958169Y1131205D2*
X1025428D1*
X1087709Y1068924D1*
Y950281D1*
X1193990Y844000D1*
X894000Y494000D2*
X818804D1*
X792819Y519986D1*
Y594000D1*
X1193990Y1144000D2*
X1130013Y1207976D1*
X958169D1*
Y1080024D2*
X1001617D1*
X1031465Y1050176D1*
Y806525D1*
X1193990Y644000D1*
Y544000D2*
X1187677D1*
X1006467Y725210D1*
Y1006143D1*
X958177Y1054433D1*
X1193990Y744000D2*
X1062711Y875278D1*
Y1056425D1*
X1013522Y1105614D1*
X958169D1*
X1193990Y944000D2*
X1168887D1*
X1112706Y1000181D1*
Y1081423D1*
X1037333Y1156795D1*
X958169D1*
X729823Y1182386D2*
X651136D1*
X500251Y1031500D1*
X494000D1*
X729823Y1080024D2*
X625249D1*
Y762751D1*
X494000Y631500D1*
X729823Y1054433D2*
X704433D1*
X675249Y1025249D1*
Y712751D1*
X494000Y531500D1*
D21*
X714740Y769197D3*
X754228Y640772D3*
D15*
X944000Y844000D3*
Y769197D3*
X794000Y844000D3*
Y769197D3*
D16*
X894000Y494000D3*
X968803D3*
D17*
X494000Y1231500D3*
D18*
Y1131500D3*
Y1031500D3*
Y931500D3*
Y831500D3*
Y731500D3*
Y631500D3*
Y531500D3*
D17*
X1193990Y1244000D3*
D18*
Y1144000D3*
Y1044000D3*
Y944000D3*
Y844000D3*
Y744000D3*
Y644000D3*
Y544000D3*
D19*
X844000Y594000D3*
X792819D3*
D20*
X729823Y1233567D3*
Y1207976D3*
Y1182386D3*
Y1156795D3*
Y1131205D3*
Y1105614D3*
Y1080024D3*
Y1054433D3*
X958177D3*
X958169Y1080024D3*
Y1105614D3*
Y1131205D3*
Y1156795D3*
Y1182386D3*
Y1207976D3*
Y1233567D3*
M02*
