G04 DipTrace 3.1.0.1*
G04 TopAssy.gbr*
%MOIN*%
G04 #@! TF.FileFunction,Drawing,Top*
G04 #@! TF.Part,Single*
%ADD10C,0.009843*%
%ADD41C,0.003088*%
%FSLAX26Y26*%
G04*
G70*
G90*
G75*
G01*
G04 TopAssy*
%LPD*%
X553839Y1300398D2*
D10*
Y462602D1*
X1253829Y1312898D2*
Y475102D1*
X592138Y980910D2*
D41*
X572042D1*
Y972288D1*
X573014Y969414D1*
X573965Y968464D1*
X575866Y967513D1*
X578740D1*
X580664Y968464D1*
X581614Y969414D1*
X582565Y972288D1*
X583538Y969414D1*
X584488Y968464D1*
X586390Y967513D1*
X588313D1*
X590214Y968464D1*
X591187Y969414D1*
X592138Y972288D1*
Y980910D1*
X582565D2*
Y972288D1*
X592138Y955589D2*
X591187Y957513D1*
X589264Y959414D1*
X587362Y960387D1*
X584488Y961337D1*
X579691D1*
X576839Y960387D1*
X574916Y959414D1*
X573014Y957513D1*
X572042Y955589D1*
Y951765D1*
X573014Y949863D1*
X574916Y947940D1*
X576839Y946989D1*
X579691Y946039D1*
X584488D1*
X587362Y946989D1*
X589264Y947940D1*
X591187Y949863D1*
X592138Y951765D1*
Y955589D1*
X572042Y924542D2*
X592138Y932214D1*
X572042Y939863D1*
X578740Y936989D2*
Y927416D1*
X582565Y918367D2*
Y909767D1*
X583538Y906893D1*
X584488Y905920D1*
X586390Y904969D1*
X588313D1*
X590214Y905920D1*
X591187Y906893D1*
X592138Y909767D1*
Y918367D1*
X572042D1*
X582565Y911668D2*
X572042Y904969D1*
X592138Y898794D2*
X572042D1*
Y892095D1*
X573015Y889221D1*
X574916Y887298D1*
X576839Y886347D1*
X579691Y885396D1*
X584488D1*
X587362Y886347D1*
X589264Y887298D1*
X591187Y889221D1*
X592138Y892095D1*
Y898794D1*
Y847356D2*
Y859780D1*
X572042D1*
Y847356D1*
X582565Y859780D2*
Y852131D1*
X592138Y841180D2*
X572042D1*
Y834481D1*
X573015Y831607D1*
X574916Y829684D1*
X576839Y828733D1*
X579691Y827783D1*
X584488D1*
X587362Y828733D1*
X589264Y829684D1*
X591187Y831607D1*
X592138Y834481D1*
Y841180D1*
X587362Y807259D2*
X589264Y808210D1*
X591187Y810133D1*
X592138Y812034D1*
Y815859D1*
X591187Y817782D1*
X589264Y819683D1*
X587362Y820656D1*
X584488Y821607D1*
X579691D1*
X576839Y820656D1*
X574916Y819683D1*
X573015Y817782D1*
X572042Y815859D1*
Y812034D1*
X573015Y810133D1*
X574916Y808210D1*
X576839Y807259D1*
X579691D1*
Y812034D1*
X592138Y788659D2*
Y801083D1*
X572042D1*
Y788659D1*
X582565Y801083D2*
Y793434D1*
X1292127Y993410D2*
X1272031D1*
Y984788D1*
X1273004Y981914D1*
X1273955Y980964D1*
X1275856Y980013D1*
X1278730D1*
X1280653Y980964D1*
X1281604Y981914D1*
X1282555Y984788D1*
X1283527Y981914D1*
X1284478Y980964D1*
X1286379Y980013D1*
X1288303D1*
X1290204Y980964D1*
X1291177Y981914D1*
X1292127Y984788D1*
Y993410D1*
X1282555D2*
Y984788D1*
X1292127Y968089D2*
X1291177Y970013D1*
X1289253Y971914D1*
X1287352Y972887D1*
X1284478Y973837D1*
X1279681D1*
X1276829Y972887D1*
X1274905Y971914D1*
X1273004Y970013D1*
X1272031Y968089D1*
Y964265D1*
X1273004Y962363D1*
X1274905Y960440D1*
X1276829Y959489D1*
X1279681Y958539D1*
X1284478D1*
X1287352Y959489D1*
X1289253Y960440D1*
X1291177Y962363D1*
X1292127Y964265D1*
Y968089D1*
X1272031Y937042D2*
X1292127Y944714D1*
X1272031Y952363D1*
X1278730Y949489D2*
Y939916D1*
X1282555Y930867D2*
Y922267D1*
X1283527Y919393D1*
X1284478Y918420D1*
X1286379Y917469D1*
X1288303D1*
X1290204Y918420D1*
X1291177Y919393D1*
X1292127Y922267D1*
Y930867D1*
X1272031D1*
X1282555Y924168D2*
X1272031Y917469D1*
X1292127Y911294D2*
X1272031D1*
Y904595D1*
X1273004Y901721D1*
X1274905Y899798D1*
X1276829Y898847D1*
X1279681Y897896D1*
X1284478D1*
X1287352Y898847D1*
X1289253Y899798D1*
X1291177Y901721D1*
X1292127Y904595D1*
Y911294D1*
Y859856D2*
Y872280D1*
X1272031D1*
Y859856D1*
X1282555Y872280D2*
Y864631D1*
X1292127Y853680D2*
X1272031D1*
Y846981D1*
X1273004Y844107D1*
X1274905Y842184D1*
X1276829Y841233D1*
X1279681Y840283D1*
X1284478D1*
X1287352Y841233D1*
X1289253Y842184D1*
X1291177Y844107D1*
X1292127Y846981D1*
Y853680D1*
X1287352Y819759D2*
X1289253Y820710D1*
X1291177Y822633D1*
X1292127Y824534D1*
Y828359D1*
X1291177Y830282D1*
X1289253Y832183D1*
X1287352Y833156D1*
X1284478Y834107D1*
X1279681D1*
X1276829Y833156D1*
X1274905Y832183D1*
X1273004Y830282D1*
X1272031Y828359D1*
Y824534D1*
X1273004Y822633D1*
X1274905Y820710D1*
X1276829Y819759D1*
X1279681D1*
Y824534D1*
X1292127Y801159D2*
Y813583D1*
X1272031D1*
Y801159D1*
X1282555Y813583D2*
Y805934D1*
M02*
